<svg width="800" height="790" xmlns="http://www.w3.org/2000/svg" stroke="null" style="vector-effect: non-scaling-stroke;">

 <g stroke="null">
  <title stroke="null">Layer 1</title>
  <g stroke="null">

   <title stroke="null">notary</title>
   <path stroke="null" fill-rule="evenodd" d="m573.92039,355.64604a22.43046,17.01023 0 0 1 13.82931,3.26136c5.31248,2.62188 11.38388,7.73774 18.97313,10.9991c10.54063,4.54033 30.10404,-1.7266 40.13872,9.52829a39.04249,29.60804 0 0 1 6.49303,16.81839a39.21114,29.73593 0 0 0 9.19143,17.96946c12.22713,12.34201 14.75688,20.52739 8.4325,29.09645c-4.3849,5.81929 -13.40768,9.08065 -15.51581,12.78965c-4.46923,7.86563 0,13.74887 -5.64978,22.89347a32.21216,24.42823 0 0 1 -19.47908,12.78965c-7.33628,1.79055 -14.84121,-0.83133 -20.74396,1.08712c-10.37198,3.32531 -17.96123,10.93515 -26.22509,12.78965a31.20026,23.66085 0 0 1 -9.52873,1.15107a30.86296,23.40506 0 0 1 -9.52873,-1.15107c-8.4325,-1.91845 -15.93743,-9.59224 -26.22509,-12.78965c-5.90275,-1.8545 -13.32336,0.70343 -20.74396,-1.08712a31.95919,24.23638 0 0 1 -19.47908,-12.78965c-6.15573,-9.1446 -1.18055,-15.02784 -5.64978,-22.89347c-2.10813,-3.709 -11.21523,-6.97036 -15.51581,-12.78965c-6.4087,-8.56906 -3.87895,-16.75444 8.4325,-29.09645a39.37979,29.86383 0 0 0 9.19143,-17.96946a38.87384,29.48014 0 0 1 6.49303,-16.81839c10.03468,-11.25489 29.59809,-4.92401 40.13872,-9.52829c7.50493,-3.26136 13.66066,-8.44117 18.97313,-10.9991a23.35804,17.71366 0 0 1 13.82931,-3.26136l0.16865,0zm-20.40666,405.87951l0,12.78965a18.72016,14.19651 0 0 1 -18.63583,14.13256l-206.42769,0a18.63583,14.13256 0 0 1 -18.63583,-14.13256l0,-12.78965l-2.27678,0a26.89969,20.39949 0 0 1 -19.05746,-6.01114l-0.59028,-0.44764a27.15266,20.59134 0 0 1 -7.4206,-14.06861l0,-21.9982a27.32131,20.71923 0 0 1 8.4325,-14.51625a26.89969,20.39949 0 0 1 19.05746,-6.01114l73.02548,0c-2.44543,-22.57373 -5.0595,-45.27536 -6.99898,-67.84909c-1.26488,-13.36518 -2.3611,-25.5793 8.4325,-38.88053a46.37877,35.17153 0 0 1 6.57735,-6.39482l0.59028,-0.38369a63.83405,48.40882 0 0 1 39.71709,-12.15017a72.60386,55.05944 0 0 1 42.16252,7.1622a55.9075,42.39769 0 0 1 9.27575,5.49955c17.87691,13.74887 16.10608,28.77671 14.25093,44.76377c-2.44543,22.70163 -5.98708,45.5951 -9.19143,68.36067l71.42331,0a26.89969,20.39949 0 0 1 19.05746,6.01114l0,0a26.89969,20.39949 0 0 1 7.92655,14.4523l0,21.80635a27.23699,20.65528 0 0 1 -27.06834,20.52739l-3.62598,0.1279zm-118.05505,-62.86113l31.62189,0c3.20435,-23.14926 6.746,-46.42643 9.36008,-69.57569c1.51785,-12.78965 2.95138,-24.36428 -9.02278,-33.57283a33.73001,25.5793 0 0 0 -5.7341,-3.45321a55.31722,41.95005 0 0 0 -31.62189,-5.11586a45.45119,34.4681 0 0 0 -28.16456,8.31327l-0.42163,0a30.01971,22.76558 0 0 0 -3.96328,3.64505c-7.58925,9.40039 -6.66168,19.56816 -5.7341,30.63121c2.0238,22.89347 4.7222,45.78694 7.0833,68.61647l36.59707,0l0,0.51159zm39.46412,13.94072l-29.51376,0l-137.87143,0a8.4325,6.39482 0 0 0 -6.0714,1.91845a8.4325,6.39482 0 0 0 -2.52975,4.60427l0,21.80635a8.4325,6.39482 0 0 0 2.19245,4.34848l0,0a8.4325,6.39482 0 0 0 6.0714,1.91845l249.60211,0a8.4325,6.39482 0 0 0 8.4325,-6.39482l0,-21.80635a8.4325,6.39482 0 0 0 -8.4325,-6.39482l-79.34986,0a8.4325,6.39482 0 0 1 -2.52975,0zm-353.6592,-38.36895c-31.87486,1.66265 -61.6416,0.83133 -80.44608,-6.01114c-24.53859,-9.08065 -39.04249,-27.11406 -39.04249,-58.51264l0,-28.96856l108.86362,0l0,-504.7435c-1.60218,-29.0325 7.7579,-47.12986 24.79156,-58.3208s40.22304,-14.4523 67.46003,-14.89994c1.26488,-0.51159 539.68023,0 595.33476,0l0,602.26457c0,24.36428 -8.4325,41.63031 -24.28561,53.14099s-39.37979,16.37075 -70.49573,16.37075l-98.82894,0l0,-23.27716l98.82894,0c23.18938,0 39.63277,-3.06952 49.58312,-10.10382s14.50391,-18.60894 14.50391,-36.13076l0,-578.79557l-564.55612,0c-20.40666,0 -37.10302,2.17424 -47.475,8.95275s-15.43148,19.18447 -14.25093,40.28739l0,575.53421l118.81398,0l0,23.27716l-138.79901,-0.06395zm-10.62495,-70.34307l-78.16931,0l0,5.62745c0,21.16687 8.4325,32.7415 22.26181,38.36895s32.97109,5.88324 55.9075,4.22058l0,-48.21698zm123.2832,-226.37679a14.75688,11.19094 0 0 1 0,-22.38189l151.27912,0a14.75688,11.19094 0 0 1 0,22.38189l-151.27912,0zm0,-80.1911a14.84121,11.25489 0 0 1 0,-22.44583l438.49019,0a14.84121,11.25489 0 0 1 0,22.44583l-438.49019,0zm0,-80.319a14.58823,11.06305 0 1 1 0,-22.12609l440.76696,0a14.58823,11.06305 0 1 1 0,22.12609l-440.76696,0zm0,-80.0632a14.84121,11.25489 0 1 1 0,-22.44583l298.17333,0a14.84121,11.25489 0 0 1 0,22.44583l-298.17333,0zm-7.16763,331.25191c37.18734,-37.02603 69.0622,-20.20765 113.5015,3.38926l6.83033,3.5811c13.15471,6.90641 27.82726,-2.94162 41.74089,-12.34201a178.09448,135.05869 0 0 1 19.90071,-12.02227l12.73308,15.09179a156.42294,118.624 0 0 0 -16.86501,10.35962c-20.74396,13.94072 -42.16252,28.52092 -70.91736,13.62098l-6.83033,-3.5811c-33.73001,-17.84156 -57.67832,-30.63121 -81.20501,-7.22615l-18.80448,-10.8712l-0.08433,0zm347.16617,-82.23744a59.70213,45.27536 0 1 1 -59.70213,45.27536a59.53348,45.14746 0 0 1 59.70213,-45.21141l0,-0.06395z" class="cls-1"/>
  </g>
 </g>
</svg>