<svg width="800" height="800" xmlns="http://www.w3.org/2000/svg" stroke="null" style="vector-effect: non-scaling-stroke;">

 <g stroke="null">
  <title stroke="null">Layer 1</title>
  <g stroke="null">
   <path stroke="null" d="m673.06534,458.43529c63.72664,-0.7319 115.80867,74.65421 116.32172,168.42941c0.4975,93.7752 -50.745,170.3964 -114.48719,171.15118c-63.74219,0.7319 -115.80867,-74.67708 -116.32172,-168.42941c-0.51305,-93.7752 50.745,-170.3964 114.48719,-171.15118zm-586.44369,-359.89093l626.75673,0c5.45695,0 9.91891,6.58714 9.91891,14.61521l0,78.10788c0,8.02807 -4.46195,14.59234 -9.91891,14.59234l-626.75673,0c-5.45695,0 -9.91891,-6.56426 -9.91891,-14.59234l0,-78.10788c0,-8.05094 4.46195,-14.61521 9.91891,-14.61521zm-42.34969,-96.56559l711.45611,0c11.62906,0 22.21648,6.99883 29.86555,18.25186c7.64906,11.25302 12.40641,26.85173 12.40641,43.93711l0,460.71071a142.66279,209.88034 0 0 0 -24.05102,-46.10995l-0.60633,-0.84626l0,-413.75449c0,-7.09032 -1.99,-13.58597 -5.19266,-18.27473a17.52599,25.78361 0 0 0 -12.42195,-7.63925l-711.45611,0c-4.85063,0 -9.26594,2.90474 -12.42195,7.54776l-0.06219,0.09149c-3.15602,4.64302 -5.13047,11.13866 -5.13047,18.27473l0,600.75597c0,7.11319 1.99,13.58597 5.19266,18.2976c3.18711,4.68876 7.60242,7.61638 12.42195,7.61638l493.67548,0a141.39728,208.01856 0 0 0 10.33867,36.27499l-504.01415,0c-11.61352,0 -22.21648,-6.99883 -29.86555,-18.25186c-7.64906,-11.25302 -12.40641,-26.82886 -12.40641,-43.93711l0,-600.75597c0,-17.03964 4.75734,-32.56973 12.40641,-43.84563l0.06219,-0.09149c7.6957,-11.2759 18.23648,-18.25186 29.80336,-18.25186zm179.55086,468.71591c12.54633,15.91891 48.38188,11.16154 61.78328,22.1401c4.25984,3.49942 8.13102,7.98233 11.22484,13.99766c7.68016,14.91254 8.27094,20.37895 11.2093,38.60794c-0.68406,10.72697 -4.81953,16.92528 -12.96609,17.84016l-210.94001,0c-8.14656,-0.91488 -12.28203,-7.11319 -12.96609,-17.84016c2.93836,-18.22898 3.52914,-23.69539 11.2093,-38.60794c3.09383,-6.03821 6.94945,-10.49825 11.22484,-13.99766c13.18375,-10.81846 48.08649,-6.10682 61.14586,-21.36245c1.97445,-6.2898 3.98,-15.20988 5.2393,-20.83639c0.06219,-0.29734 -0.10883,0.45744 0.52859,-2.33294c1.46141,-6.40416 -7.16711,-18.93802 -10.04328,-25.66238l-10.69625,-25.04484c-3.91781,-8.577 -5.93891,-16.4221 -6.06328,-22.872c-0.06219,-3.0191 0.27984,-5.76374 1.04164,-8.18818a10.35422,15.23275 0 0 1 3.68461,-6.2898a13.40141,19.71566 0 0 1 2.58078,-1.94412c-0.68406,-13.5631 -0.94836,-23.87837 -0.4975,-38.19624c0.2332,-3.40793 0.66852,-6.79298 1.32148,-10.20091c3.91781,-20.5848 15.93555,-35.40586 29.67899,-42.40469c6.66961,-3.38506 4.08883,-11.45887 10.83617,-10.90994c15.96664,1.28083 40.60844,16.4221 50.07649,32.47824c13.26148,22.48318 9.84117,43.41106 9.39031,70.85746c2.96945,1.34945 4.86617,4.11696 5.64352,8.577c0.87063,4.96322 -0.06219,11.96206 -2.92281,21.52255l-0.01555,-0.02287c-0.04664,0.18298 -0.10883,0.34308 -0.17102,0.52606l-12.18875,29.52775c-4.7107,11.39026 -9.48359,22.80338 -15.84227,31.56336c-0.31094,0.43457 -0.62188,0.84626 -0.94836,1.25796c0.93281,1.89838 2.00555,4.23132 3.15602,6.7015c1.66352,3.5909 3.4825,7.52489 5.28594,11.11579zm117.82977,-159.16625c-5.67461,0 -10.27648,-9.03444 -10.27648,-20.15023c0,-11.13866 4.60188,-20.1731 10.27648,-20.1731l203.55524,0c5.67461,0 10.27648,9.03444 10.27648,20.1731c0,11.11579 -4.60188,20.15023 -10.27648,20.15023l-203.55524,0zm0,228.99447c-5.67461,0 -10.27648,-9.01157 -10.27648,-20.15023c0,-11.13866 4.60188,-20.15023 10.27648,-20.15023l219.4286,0a141.87457,208.72073 0 0 0 -16.57297,40.30046l-202.85563,0zm0,-114.49723c-5.67461,0 -10.27648,-9.03444 -10.27648,-20.15023c0,-11.13866 4.60188,-20.1731 10.27648,-20.1731l306.53774,0c5.67461,0 10.27648,9.03444 10.27648,20.1731c0,11.11579 -4.60188,20.15023 -10.27648,20.15023l-306.53774,0zm331.81696,202.64592a5.98555,8.80572 0 0 1 6.03219,8.71423c0.01555,4.87174 -2.62742,8.82859 -5.92336,8.85146c-3.29594,0.04574 -6.00109,-3.86537 -6.01664,-8.69136a5.96223,8.77141 0 0 1 5.90781,-8.87434zm-0.06219,-22.98636c11.89336,-0.1601 21.6257,13.92905 21.71898,31.42613c0.09328,17.51995 -9.46805,31.81495 -21.36141,31.97506c-11.90891,0.11436 -21.6257,-13.95192 -21.71898,-31.449c-0.10883,-17.51995 9.46805,-31.81495 21.36141,-31.95218zm-87.3268,-23.0321c8.17766,-34.12502 25.07711,-63.03523 46.36078,-77.94778c29.25922,-20.49331 64.87711,-22.18584 95.27125,10.33814c17.89445,19.16674 24.48633,34.97129 33.51906,63.03523c6.87172,24.88474 1.38367,33.05004 -20.30422,19.30397c-44.86828,-31.99793 -90.03196,-30.03094 -135.45993,1.57817c-16.74398,16.37635 -26.25867,2.97336 -19.38695,-16.30774zm115.77758,176.82344c31.12484,-14.82106 49.19031,-44.28019 60.16641,-81.69879c7.12047,-28.91021 -15.73344,-38.40209 -23.6157,-19.32684c-4.72625,14.04341 -10.35422,26.09695 -17.77008,35.47447c-11.55133,14.7067 -28.41969,17.54282 -30.89164,45.03497c-1.29039,14.295 0.995,27.05758 12.11102,20.51618zm-53.80774,0.61754c-31.28031,-14.08915 -49.67227,-43.11372 -61.05258,-80.25785c-7.41586,-28.72723 15.31367,-38.76804 23.41359,-19.89864c4.86617,13.92905 10.63406,25.84536 18.1432,35.08565c11.72234,14.40936 28.60625,16.87954 31.38914,44.28019c1.43031,14.27213 -0.69961,27.10332 -11.89336,20.79065z"/>
  </g>
 </g>
</svg>