<svg width="800" height="600" xmlns="http://www.w3.org/2000/svg">

 <g>
  <title>Layer 1</title>
  <g stroke="null">
   <g stroke="null">
    <path stroke="null" d="m47.39525,2.90798l706.20298,0l0.01299,0l0,0.07966c12.64868,0.01448 24.10912,5.77919 32.38141,15.06355c8.23333,9.26263 13.35644,22.05217 13.35644,36.13079l0.0909,0l0,0.04345l-0.0909,0l0,522.38649c0,11.80461 -8.58396,21.40038 -19.1873,21.40038l0,0.07966l-759.33005,0c-10.6423,0.00724 -19.27171,-9.6175 -19.27171,-21.4728c0,-0.65903 0.02597,-1.31806 0.0909,-1.95536l0,-520.43837l-0.0909,0l0,-0.01448l0.0909,0c0,-14.10759 5.12311,-26.91885 13.36942,-36.167c8.2593,-9.27712 19.70026,-15.04182 32.33596,-15.06355l0,-0.07242l0.03896,0l0,0zm56.86713,99.70186l488.94822,0l0,79.48195l-488.94822,0l0,-79.48195l0,0zm518.92715,0l73.54157,0l0,79.48195l-73.54157,0l0,-79.48195l0,0zm-518.92715,395.7875l0,-45.14719c21.6547,-10.73278 87.96289,-30.65577 91.0861,-60.23247c0.70126,-6.66997 -13.40189,-32.61838 -16.64198,-44.81406c-4.06472,-7.24209 -6.25941,-9.80579 -6.15552,-18.73529c0.05844,-5.02601 0.13636,-9.97236 0.76619,-14.80283c0.83762,-6.1775 0.6623,-6.35131 3.56475,-11.32663c2.99984,-5.15637 1.72069,-24.00753 1.72069,-31.11926c0,-70.77695 111.19543,-70.79868 111.19543,0c0,8.95122 -1.85704,25.39077 2.51935,32.43732c2.10379,3.41827 1.74017,3.82382 2.44143,8.00975c0.92852,5.46778 0.99995,11.0804 1.07787,16.80165c0.10389,8.9295 -2.07781,11.4932 -6.13604,18.73529c-3.94784,12.81126 -18.94056,37.05054 -17.65491,44.30711c4.77248,27.00576 66.26274,45.13995 85.62535,54.75745l0,51.14365l-253.4087,0l0,-0.01448zm292.46508,-246.47008l300.00364,0l0,44.03191l-300.00364,0l0,-44.03191l0,0zm6.95418,198.31741l293.05596,0l0,44.03191l-293.05596,0l0,-44.03191l0,0zm126.90889,-99.15871l166.14707,0l0,44.02467l-166.14707,0l0,-44.02467l0,0zm-126.90889,0l92.9821,0l0,44.02467l-92.9821,0l0,-44.02467l0,0zm349.91659,-305.21792l-706.20298,0l-0.04545,0l0,-0.07966c-1.92847,0 -3.75305,0.95596 -5.09713,2.46231c-1.37655,1.56429 -2.23365,3.6645 -2.23365,5.96024l0.07792,0l0,0.01448l-0.07792,0l0,500.91369l720.96194,0l0,-500.91369l-0.07792,0l0,-0.04345l0.07792,0c0,-2.26677 -0.8571,-4.37422 -2.22716,-5.90955c-1.35707,-1.52808 -3.18165,-2.48404 -5.14259,-2.48404l0,0.07966l-0.01299,0l0,0z"/>
   </g>
  </g>
 </g>
</svg>