<svg width="800" height="800" xmlns="http://www.w3.org/2000/svg">

 <g>
  <title>Layer 1</title>
  <g stroke="null">
   <g stroke="null">
    <title stroke="null">Layer 1</title>
    <g stroke="null">
     <g stroke="null">
      <path stroke="null" d="m46.89527,1.40803l706.20298,0l0.01299,0l0,0.1067c12.64868,0.01939 24.10912,7.74059 32.38141,20.17598c8.23333,12.40628 13.35644,29.53647 13.35644,48.39325l0.0909,0l0,0.0582l-0.0909,0l0,699.67968c0,15.81099 -8.58396,28.66347 -19.1873,28.66347l0,0.1067l-759.33005,0c-10.6423,0.0097 -19.27171,-12.88159 -19.27171,-28.76047c0,-0.8827 0.02597,-1.7654 0.0909,-2.61899l0,-697.07039l-0.0909,0l0,-0.01939l0.0909,0c0,-18.89558 5.12311,-36.05486 13.36942,-48.44175c8.2593,-12.42569 19.70026,-20.14688 32.33596,-20.17598l0,-0.097l0.03896,0l0,0zm56.86713,133.53976l488.94822,0l0,106.4574l-488.94822,0l0,-106.4574l0,0zm518.92715,0l73.54157,0l0,106.4574l-73.54157,0l0,-106.4574l0,0zm-518.92715,530.11415l0,-60.46973c21.6547,-14.37539 87.96289,-41.06006 91.0861,-80.67482c0.70126,-8.9337 -13.40189,-43.68876 -16.64198,-60.02354c-4.06472,-9.69999 -6.25941,-13.13379 -6.15552,-25.09388c0.05844,-6.73179 0.13636,-13.35689 0.76619,-19.82677c0.83762,-8.27409 0.6623,-8.50689 3.56475,-15.17078c2.99984,-6.90639 1.72069,-32.15547 1.72069,-41.68085c0,-94.798 111.19543,-94.8271 111.19543,0c0,11.98918 -1.85704,34.00816 2.51935,43.44625c2.10379,4.5784 1.74017,5.12159 2.44143,10.72819c0.92852,7.32349 0.99995,14.84099 1.07787,22.50398c0.10389,11.96009 -2.07781,15.39389 -6.13604,25.09388c-3.94784,17.15928 -18.94056,49.62515 -17.65491,59.34454c4.77248,36.17127 66.26274,60.46004 85.62535,73.34163l0,68.50134l-253.4087,0l0,-0.01939l-0.00001,-0.00001zm292.46508,-330.11977l300.00364,0l0,58.97594l-300.00364,0l0,-58.97594l0,0zm6.95418,265.62452l293.05596,0l0,58.97594l-293.05596,0l0,-58.97594l0,0zm126.90889,-132.81227l166.14707,0l0,58.96624l-166.14707,0l0,-58.96624l0,0zm-126.90889,0l92.9821,0l0,58.96624l-92.9821,0l0,-58.96624l0,0zm349.91659,-408.80609l-706.20298,0l-0.04545,0l0,-0.1067c-1.92847,0 -3.75305,1.2804 -5.09713,3.298c-1.37655,2.0952 -2.23365,4.9082 -2.23365,7.98309l0.07792,0l0,0.01939l-0.07792,0l0,670.91921l720.96194,0l0,-670.91921l-0.07792,0l0,-0.0582l0.07792,0c0,-3.03609 -0.8571,-5.85879 -2.22716,-7.9152c-1.35707,-2.0467 -3.18165,-3.3271 -5.14259,-3.3271l0,0.1067l-0.01299,0l0,0l0.00001,0.00001z"/>
     </g>
    </g>
   </g>
  </g>
 </g>
</svg>