<svg width="800" height="790" xmlns="http://www.w3.org/2000/svg" stroke="null" style="vector-effect: non-scaling-stroke;">

 <g stroke="null">
  <title stroke="null">Layer 1</title>
  <g stroke="null">

   <title stroke="null">property-agreement</title>
   <path stroke="null" fill-rule="evenodd" d="m711.90383,481.28085l76.08872,51.94784a23.39488,20.30514 0 0 1 3.91145,28.37595l-33.2104,36.57487l-112.69396,-76.86487l33.2104,-36.57487a23.39488,20.30514 0 0 1 32.6938,-3.33081l0,-0.12811zm-521.55091,51.94784a17.85982,15.50108 0 1 1 0,-30.93811l375.72035,0l-27.60153,30.93811l-348.11881,0zm21.40226,-119.39676l0,-131.43892a31.80818,27.6073 0 0 1 -22.14027,0.89676a25.38751,22.0346 0 0 1 -12.10335,-7.30216a26.78972,23.25162 0 0 1 -5.23986,-11.78595a34.53882,29.9773 0 0 1 8.2657,-22.0346l0,0s0.73801,-0.70459 1.18081,-1.02486l196.82698,-133.23244a7.38009,6.40541 0 0 1 9.29891,-0.38432l196.82698,132.97622l0,0l0.88561,0.70459a32.39859,28.11973 0 0 1 9.15131,25.94189a27.08493,23.50784 0 0 1 -6.27308,10.37676a26.64212,23.12351 0 0 1 -11.14393,6.40541a30.47977,26.45433 0 0 1 -23.39488,-1.34514l0,130.99054l-19.26203,0l0,-138.1646c0,-3.01054 -135.20324,-95.69676 -150.11102,-105.8173c-15.79339,10.44081 -153.57966,102.42244 -153.57966,106.32973l0,138.10054l-19.18823,-0.19216zm172.02988,-148.92568a83.39501,72.38108 0 0 1 83.32121,72.18892l0,76.86487l-166.49481,0l0,-76.86487a83.39501,72.38108 0 0 1 83.17361,-72.18892zm7.38009,12.81081l0,59.50622l61.18094,0l0,0a68.85623,59.76243 0 0 0 -61.47614,-59.31406l0.2952,-0.19216zm0,72.06081l0,51.62757l61.18094,0l0,-51.56351l-61.18094,-0.06405zm-14.76018,51.62757l0,-51.56351l-61.32854,0l0,51.62757l61.32854,-0.06405zm0,-64.05406l0,-59.57027a69.00383,59.89054 0 0 0 -61.47614,59.31406l0,0l61.47614,0.25622zm118.81944,-218.42433l59.04071,0l0,69.37054l-59.04071,-33.8846l0,-35.48595zm-302.58366,500.51839a18.08122,15.69324 0 0 1 0,-31.32243l296.97479,0l-27.97054,31.32243l-269.00425,0zm233.21082,128.10811a22.65687,19.6646 0 0 1 3.91145,0l0,0.57649l-0.73801,7.75054c-1.10701,12.81081 -2.06643,23.18757 -2.06643,32.53946l-369.59487,0a55.20307,47.91243 0 0 1 -55.20307,-47.65622l0,-691.27137a55.20307,47.91243 0 0 1 55.20307,-47.91243l659.18958,0a55.20307,47.91243 0 0 1 55.12927,47.91243l0,358.70271a60.29533,52.33216 0 0 1 -1.47602,12.36243l-3.17344,-2.24189a97.78618,84.87162 0 0 0 -42.73072,-16.78216l0,-352.29731a7.9705,6.91784 0 0 0 -7.38009,-6.72568l-659.55858,0a8.2657,7.17405 0 0 0 -5.53507,1.92162a8.4871,7.36622 0 0 0 -2.28783,4.80405l0,691.46353a7.74909,6.72568 0 0 0 2.36163,4.74a7.9705,6.91784 0 0 0 5.53507,1.98568l368.41406,0.12811zm207.74951,-9.35189c-26.27312,10.12054 -47.38017,15.18081 -73.80089,25.62162c-55.94108,16.65405 -53.94845,27.92757 -49.7418,-20.17703l11.07013,-82.30946l0,0l108.33971,-121.70271l112.69396,76.86487l-108.48731,121.70271l0,0l-0.0738,0zm-93.21053,-64.05406l73.80089,50.6027l-51.66063,19.92081c-40.59049,15.56514 -39.33588,23.05946 -32.6938,-13.25919l10.55353,-57.26433z" class="cls-1"/>
  </g>
 </g>
</svg>